<svg width="35" height="22" viewBox="0 0 35 22" fill="none" xmlns="http://www.w3.org/2000/svg">
<path d="M0.933735 11.1281C0.933735 11.5735 1.28347 11.935 1.71439 11.935H31.0617L23.054 20.0743C22.9776 20.1477 22.9161 20.2363 22.8733 20.3347C22.8306 20.4331 22.8073 20.5393 22.805 20.6472C22.8026 20.755 22.8212 20.8623 22.8596 20.9626C22.8981 21.0629 22.9556 21.1542 23.0287 21.2311C23.1019 21.308 23.1893 21.369 23.2856 21.4104C23.382 21.4519 23.4854 21.4729 23.5898 21.4723C23.6942 21.4717 23.7974 21.4494 23.8933 21.4069C23.9892 21.3644 24.0759 21.3024 24.1482 21.2246L33.5086 11.711C33.595 11.6259 33.6613 11.5214 33.7023 11.4055C33.7434 11.2896 33.7581 11.1656 33.7453 11.0429C33.7257 10.8488 33.6385 10.6687 33.4998 10.5362L24.1482 1.03163C24.0759 0.95386 23.9892 0.891871 23.8933 0.849328C23.7974 0.806786 23.6942 0.784554 23.5898 0.783948C23.4854 0.783342 23.382 0.804374 23.2856 0.845801C23.1893 0.887227 23.1019 0.948207 23.0287 1.02513C22.9556 1.10206 22.8981 1.19337 22.8596 1.29367C22.8212 1.39396 22.8026 1.50121 22.805 1.60906C22.8073 1.71691 22.8306 1.82317 22.8733 1.92157C22.9161 2.01997 22.9776 2.10851 23.054 2.18194L31.0617 10.3212H1.71439C1.28347 10.3212 0.933735 10.6827 0.933735 11.1281Z" fill="#FD6E6E" stroke="#FD6E6E" stroke-width="0.612422"/>
</svg>