<svg width="17" height="16" viewBox="0 0 17 16" fill="none" xmlns="http://www.w3.org/2000/svg">
<path d="M15.2847 2.87515H12.2605V2.25453C12.26 1.7609 12.0687 1.28765 11.7286 0.938608C11.3885 0.589562 10.9274 0.393224 10.4464 0.39267H6.81818C6.33722 0.393224 5.8761 0.589562 5.53601 0.938608C5.19591 1.28765 5.00461 1.7609 5.00407 2.25453V2.87515H1.98114C1.66049 2.87552 1.35309 3.00641 1.12635 3.2391C0.899624 3.4718 0.772089 3.7873 0.771729 4.11638V14.0463C0.772089 14.3754 0.899624 14.6909 1.12635 14.9236C1.35309 15.1563 1.66049 15.2872 1.98114 15.2875H15.2847C15.6053 15.2872 15.9127 15.1563 16.1395 14.9236C16.3662 14.6909 16.4937 14.3754 16.4941 14.0463V4.11638C16.4937 3.7873 16.3662 3.4718 16.1395 3.2391C15.9127 3.00641 15.6053 2.87552 15.2847 2.87515ZM6.21348 2.25453C6.21368 2.08999 6.27745 1.93225 6.39081 1.81591C6.50417 1.69957 6.65787 1.63411 6.81818 1.63391H10.4464C10.6067 1.63411 10.7604 1.69957 10.8738 1.81591C10.9872 1.93225 11.0509 2.08999 11.0511 2.25453V2.87515H6.21348V2.25453ZM15.2847 4.11638L15.2849 7.34407C13.2436 8.48453 10.9564 9.08181 8.6323 9.08134C6.30872 9.0818 4.02205 8.4848 1.98114 7.34485V4.11638H15.2847ZM15.2847 14.0463H1.98114V8.74287C4.052 9.78254 6.32695 10.3229 8.6323 10.3226C10.9382 10.3229 13.2137 9.78227 15.285 8.74209L15.2847 14.0463ZM7.12054 7.21948C7.12054 7.05488 7.18425 6.89703 7.29765 6.78064C7.41105 6.66425 7.56486 6.59886 7.72524 6.59886H9.53936C9.69974 6.59886 9.85355 6.66425 9.96695 6.78064C10.0804 6.89703 10.1441 7.05488 10.1441 7.21948C10.1441 7.38408 10.0804 7.54194 9.96695 7.65833C9.85355 7.77471 9.69974 7.8401 9.53936 7.8401H7.72524C7.56486 7.8401 7.41105 7.77471 7.29765 7.65833C7.18425 7.54194 7.12054 7.38408 7.12054 7.21948Z" fill="black"/>
</svg>