<svg width="115" height="82" viewBox="0 0 115 82" fill="none" xmlns="http://www.w3.org/2000/svg">
<g clip-path="url(#clip0_1062_1144)">
<path fill-rule="evenodd" clip-rule="evenodd" d="M-49.4863 3.67272C-40.2618 3.68102 -35.7931 5.28962 -31.1335 6.94462C-26.4773 8.60952 -21.6318 10.321 -12.2246 10.3127C-2.81754 10.321 2.02962 8.60952 6.68754 6.94462C11.3471 5.28962 15.8158 3.68102 25.042 3.67272C34.2666 3.68102 38.7369 5.28962 43.3965 6.94462C48.0527 8.60952 52.8999 10.321 62.307 10.3127C71.7142 10.321 76.5613 8.60952 81.2176 6.94462C85.8772 5.28962 90.3475 3.68102 99.572 3.67272C108.799 3.68102 113.269 5.28962 117.929 6.94462C122.585 8.60952 127.434 10.321 136.841 10.3127C146.251 10.321 151.098 8.60952 155.756 6.94462C160.416 5.28962 164.886 3.68102 174.112 3.67272C183.34 3.68102 187.811 5.28962 192.472 6.94462C197.13 8.60952 201.977 10.321 211.387 10.3127V8.65272C202.16 8.64442 197.689 7.03592 193.03 5.38092C188.372 3.71592 183.523 2.00452 174.112 2.01272C164.704 2.00452 159.856 3.71592 155.199 5.38092C150.539 7.03592 146.069 8.64442 136.841 8.65272C127.616 8.64442 123.146 7.03592 118.486 5.38092C113.828 3.71592 108.981 2.00452 99.572 2.01272C90.1649 2.00452 85.3177 3.71592 80.6615 5.38092C76.0019 7.03592 71.5316 8.64442 62.307 8.65272C53.0825 8.64442 48.6122 7.03592 43.9526 5.38092C39.2963 3.71592 34.4492 2.00452 25.042 2.01272C15.6332 2.00452 10.7877 3.71592 6.12979 5.38092C1.47021 7.03592 -3.00014 8.64442 -12.2246 8.65272C-21.4492 8.64442 -25.9179 7.03592 -30.5758 5.38092C-35.232 3.71592 -40.0792 2.00452 -49.4863 2.01272V3.67272Z" fill="#2F3E6C"/>
<path fill-rule="evenodd" clip-rule="evenodd" d="M-49.4863 16.9525C-40.2618 16.9608 -35.7931 18.5693 -31.1335 20.2243C-26.4773 21.8893 -21.6318 23.6007 -12.2246 23.5925C-2.81754 23.6007 2.02962 21.8893 6.68754 20.2243C11.3471 18.5693 15.8158 16.9608 25.042 16.9525C34.2666 16.9608 38.7369 18.5693 43.3965 20.2243C48.0527 21.8893 52.8999 23.6007 62.307 23.5925C71.7142 23.6007 76.5613 21.8893 81.2176 20.2243C85.8772 18.5693 90.3475 16.9608 99.572 16.9525C108.799 16.9608 113.269 18.5693 117.929 20.2243C122.585 21.8893 127.434 23.6007 136.841 23.5925C146.251 23.6007 151.098 21.8893 155.756 20.2243C160.416 18.5693 164.886 16.9608 174.112 16.9525C183.34 16.9608 187.811 18.5693 192.472 20.2243C197.13 21.8893 201.977 23.6007 211.387 23.5925V21.9325C202.16 21.9242 197.689 20.3156 193.03 18.6606C188.372 16.9957 183.523 15.2842 174.112 15.2925C164.704 15.2842 159.856 16.9957 155.199 18.6606C150.539 20.3156 146.069 21.9242 136.841 21.9325C127.616 21.9242 123.146 20.3156 118.486 18.6606C113.828 16.9957 108.981 15.2842 99.572 15.2925C90.1649 15.2842 85.3177 16.9957 80.6615 18.6606C76.0019 20.3156 71.5316 21.9242 62.307 21.9325C53.0825 21.9242 48.6122 20.3156 43.9526 18.6606C39.2963 16.9957 34.4492 15.2842 25.042 15.2925C15.6332 15.2842 10.7877 16.9957 6.12979 18.6606C1.47021 20.3156 -3.00014 21.9242 -12.2246 21.9325C-21.4492 21.9242 -25.9179 20.3156 -30.5758 18.6606C-35.232 16.9957 -40.0792 15.2842 -49.4863 15.2925V16.9525Z" fill="#2F3E6C"/>
<path fill-rule="evenodd" clip-rule="evenodd" d="M-49.4863 30.2342C-40.2618 30.2425 -35.7931 31.8511 -31.1335 33.5061C-26.4773 35.171 -21.6318 36.8825 -12.2246 36.8742C-2.81754 36.8825 2.02962 35.171 6.68754 33.5061C11.3471 31.8511 15.8158 30.2425 25.042 30.2342C34.2666 30.2425 38.7369 31.8511 43.3965 33.5061C48.0527 35.171 52.8999 36.8825 62.307 36.8742C71.7142 36.8825 76.5613 35.171 81.2176 33.5061C85.8772 31.8511 90.3475 30.2425 99.572 30.2342C108.799 30.2425 113.269 31.8511 117.929 33.5061C122.585 35.171 127.434 36.8825 136.841 36.8742C146.251 36.8825 151.098 35.171 155.756 33.5061C160.416 31.8511 164.886 30.2425 174.112 30.2342C183.34 30.2425 187.811 31.8511 192.472 33.5061C197.13 35.171 201.977 36.8825 211.387 36.8742V35.2142C202.16 35.2059 197.689 33.5974 193.03 31.9424C188.372 30.2774 183.523 28.566 174.112 28.5742C164.704 28.566 159.856 30.2774 155.199 31.9424C150.539 33.5974 146.069 35.2059 136.841 35.2142C127.616 35.2059 123.146 33.5974 118.486 31.9424C113.828 30.2774 108.981 28.566 99.572 28.5742C90.1649 28.566 85.3177 30.2774 80.6615 31.9424C76.0019 33.5974 71.5316 35.2059 62.307 35.2142C53.0825 35.2059 48.6122 33.5974 43.9526 31.9424C39.2963 30.2774 34.4492 28.566 25.042 28.5742C15.6332 28.566 10.7877 30.2774 6.12979 31.9424C1.47021 33.5974 -3.00014 35.2059 -12.2246 35.2142C-21.4492 35.2059 -25.9179 33.5974 -30.5758 31.9424C-35.232 30.2774 -40.0792 28.566 -49.4863 28.5742V30.2342Z" fill="#2F3E6C"/>
<path fill-rule="evenodd" clip-rule="evenodd" d="M-49.4863 43.516C-40.2618 43.5243 -35.7931 45.1328 -31.1335 46.7878C-26.4773 48.4528 -21.6318 50.1642 -12.2246 50.156C-2.81754 50.1642 2.02962 48.4528 6.68754 46.7878C11.3471 45.1328 15.8158 43.5243 25.042 43.516C34.2666 43.5243 38.7369 45.1328 43.3965 46.7878C48.0527 48.4528 52.8999 50.1642 62.307 50.156C71.7142 50.1642 76.5613 48.4528 81.2176 46.7878C85.8772 45.1328 90.3475 43.5243 99.572 43.516C108.799 43.5243 113.269 45.1328 117.929 46.7878C122.585 48.4528 127.434 50.1642 136.841 50.156C146.251 50.1642 151.098 48.4528 155.756 46.7878C160.416 45.1328 164.886 43.5243 174.112 43.516C183.34 43.5243 187.811 45.1328 192.472 46.7878C197.13 48.4528 201.977 50.1642 211.387 50.156V48.496C202.16 48.4877 197.689 46.8791 193.03 45.2241C188.372 43.5592 183.523 41.8477 174.112 41.856C164.704 41.8477 159.856 43.5592 155.199 45.2241C150.539 46.8791 146.069 48.4877 136.841 48.496C127.616 48.4877 123.146 46.8791 118.486 45.2241C113.828 43.5592 108.981 41.8477 99.572 41.856C90.1649 41.8477 85.3177 43.5592 80.6615 45.2241C76.0019 46.8791 71.5316 48.4877 62.307 48.496C53.0825 48.4877 48.6122 46.8791 43.9526 45.2241C39.2963 43.5592 34.4492 41.8477 25.042 41.856C15.6332 41.8477 10.7877 43.5592 6.12979 45.2241C1.47021 46.8791 -3.00014 48.4877 -12.2246 48.496C-21.4492 48.4877 -25.9179 46.8791 -30.5758 45.2241C-35.232 43.5592 -40.0792 41.8477 -49.4863 41.856V43.516Z" fill="#2F3E6C"/>
<path fill-rule="evenodd" clip-rule="evenodd" d="M-49.4863 56.7977C-40.2618 56.806 -35.7931 58.4146 -31.1335 60.0696C-26.4773 61.7345 -21.6318 63.446 -12.2246 63.4377C-2.81754 63.446 2.02962 61.7345 6.68754 60.0696C11.3471 58.4146 15.8158 56.806 25.042 56.7977C34.2666 56.806 38.7369 58.4146 43.3965 60.0696C48.0527 61.7345 52.8999 63.446 62.307 63.4377C71.7142 63.446 76.5613 61.7345 81.2176 60.0696C85.8772 58.4146 90.3475 56.806 99.572 56.7977C108.799 56.806 113.269 58.4146 117.929 60.0696C122.585 61.7345 127.434 63.446 136.841 63.4377C146.251 63.446 151.098 61.7345 155.756 60.0696C160.416 58.4146 164.886 56.806 174.112 56.7977C183.34 56.806 187.811 58.4146 192.472 60.0696C197.13 61.7345 201.977 63.446 211.387 63.4377V61.7777C202.16 61.7694 197.689 60.1609 193.03 58.5059C188.372 56.8409 183.523 55.1295 174.112 55.1377C164.704 55.1295 159.856 56.8409 155.199 58.5059C150.539 60.1609 146.069 61.7694 136.841 61.7777C127.616 61.7694 123.146 60.1609 118.486 58.5059C113.828 56.8409 108.981 55.1295 99.572 55.1377C90.1649 55.1295 85.3177 56.8409 80.6615 58.5059C76.0019 60.1609 71.5316 61.7694 62.307 61.7777C53.0825 61.7694 48.6122 60.1609 43.9526 58.5059C39.2963 56.8409 34.4492 55.1295 25.042 55.1377C15.6332 55.1295 10.7877 56.8409 6.12979 58.5059C1.47021 60.1609 -3.00014 61.7694 -12.2246 61.7777C-21.4492 61.7694 -25.9179 60.1609 -30.5758 58.5059C-35.232 56.8409 -40.0792 55.1295 -49.4863 55.1377V56.7977Z" fill="#2F3E6C"/>
<path fill-rule="evenodd" clip-rule="evenodd" d="M-49.4863 70.0775C-40.2618 70.0858 -35.7931 71.6943 -31.1335 73.3493C-26.4773 75.0148 -21.6318 76.7258 -12.2246 76.7178C-2.81754 76.7258 2.02962 75.0148 6.68754 73.3493C11.3471 71.6943 15.8158 70.0858 25.042 70.0775C34.2666 70.0858 38.7369 71.6943 43.3965 73.3493C48.0527 75.0148 52.8999 76.7258 62.307 76.7178C71.7142 76.7258 76.5613 75.0148 81.2176 73.3493C85.8772 71.6943 90.3475 70.0858 99.572 70.0775C108.799 70.0858 113.269 71.6943 117.929 73.3493C122.585 75.0148 127.434 76.7258 136.841 76.7178C146.251 76.7258 151.098 75.0148 155.756 73.3493C160.416 71.6943 164.886 70.0858 174.112 70.0775C183.34 70.0858 187.811 71.6943 192.472 73.3493C197.13 75.0148 201.977 76.7258 211.387 76.7178V75.0578C202.16 75.0488 197.689 73.4406 193.03 71.7856C188.372 70.1207 183.523 68.4092 174.112 68.4175C164.704 68.4092 159.856 70.1207 155.199 71.7856C150.539 73.4406 146.069 75.0488 136.841 75.0578C127.616 75.0488 123.146 73.4406 118.486 71.7856C113.828 70.1207 108.981 68.4092 99.572 68.4175C90.1649 68.4092 85.3177 70.1207 80.6615 71.7856C76.0019 73.4406 71.5316 75.0488 62.307 75.0578C53.0825 75.0488 48.6122 73.4406 43.9526 71.7856C39.2963 70.1207 34.4492 68.4092 25.042 68.4175C15.6332 68.4092 10.7877 70.1207 6.12979 71.7856C1.47021 73.4406 -3.00014 75.0488 -12.2246 75.0578C-21.4492 75.0488 -25.9179 73.4406 -30.5758 71.7856C-35.232 70.1207 -40.0792 68.4092 -49.4863 68.4175V70.0775Z" fill="#2F3E6C"/>
</g>
<defs>
<clipPath id="clip0_1062_1144">
<rect width="123" height="81" fill="white" transform="translate(0 0.438477)"/>
</clipPath>
</defs>
</svg>