<svg width="18" height="18" viewBox="0 0 18 18" fill="none" xmlns="http://www.w3.org/2000/svg">
<path d="M4.40224 15.4693C4.27869 15.469 4.15732 15.4368 4.04983 15.3758C3.93874 15.3134 3.84623 15.2225 3.78178 15.1126C3.71733 15.0027 3.68325 14.8776 3.68303 14.7501V4.19942C3.67331 3.76813 3.83394 3.35038 4.13011 3.03671C4.42629 2.72303 4.83414 2.53871 5.26528 2.52368H12.1696C12.6008 2.53871 13.0086 2.72303 13.3048 3.03671C13.601 3.35038 13.7616 3.76813 13.7519 4.19942V14.7501C13.7511 14.8756 13.7175 14.9988 13.6544 15.1073C13.5913 15.2158 13.501 15.3059 13.3923 15.3686C13.2829 15.4318 13.1589 15.465 13.0327 15.465C12.9064 15.465 12.7824 15.4318 12.6731 15.3686L8.59519 13.06L4.76184 15.3615C4.65364 15.4286 4.52954 15.4658 4.40224 15.4693Z" fill="#C8C8C8"/>
</svg>