<svg width="26" height="27" viewBox="0 0 26 27" fill="none" xmlns="http://www.w3.org/2000/svg">
<path d="M13.9001 13.2606C15.8855 13.2606 17.495 11.6998 17.495 9.77456C17.495 7.8493 15.8855 6.28857 13.9001 6.28857C11.9147 6.28857 10.3052 7.8493 10.3052 9.77456C10.3052 11.6998 11.9147 13.2606 13.9001 13.2606Z" stroke="white" stroke-width="1.29496" stroke-linecap="round" stroke-linejoin="round"/>
<path d="M1.31787 6.28904H3.11533V4.54605C3.11533 3.62151 3.49408 2.73483 4.16826 2.08108C4.84244 1.42733 5.75683 1.06006 6.71026 1.06006H21.09C22.0434 1.06006 22.9578 1.42733 23.632 2.08108C24.3061 2.73483 24.6849 3.62151 24.6849 4.54605V21.976C24.6849 22.9005 24.3061 23.7872 23.632 24.441C22.9578 25.0947 22.0434 25.462 21.09 25.462H6.71026C5.75683 25.462 4.84244 25.0947 4.16826 24.441C3.49408 23.7872 3.11533 22.9005 3.11533 21.976V20.233H1.31787" stroke="white" stroke-width="1.29496" stroke-linecap="round" stroke-linejoin="round"/>
<path d="M1.31787 13.2612H3.11533" stroke="white" stroke-width="1.29496" stroke-linecap="round" stroke-linejoin="round"/>
<path d="M1.31787 9.7749H3.11533" stroke="white" stroke-width="1.29496" stroke-linecap="round" stroke-linejoin="round"/>
<path d="M1.31787 16.7461H3.11533" stroke="white" stroke-width="1.29496" stroke-linecap="round" stroke-linejoin="round"/>
<path fill-rule="evenodd" clip-rule="evenodd" d="M19.2926 18.4902V16.7472C19.2926 15.8227 18.9138 14.936 18.2397 14.2823C17.5655 13.6285 16.6511 13.2612 15.6977 13.2612H12.1027C11.1493 13.2612 10.2349 13.6285 9.56074 14.2823C8.88656 14.936 8.50781 15.8227 8.50781 16.7472V18.4902C8.50781 18.9525 8.69719 19.3958 9.03428 19.7227C9.37137 20.0496 9.82856 20.2332 10.3053 20.2332H17.4951C17.9718 20.2332 18.429 20.0496 18.7661 19.7227C19.1032 19.3958 19.2926 18.9525 19.2926 18.4902Z" stroke="white" stroke-width="1.29496" stroke-linecap="round" stroke-linejoin="round"/>
</svg>