<svg width="31" height="31" viewBox="0 0 31 31" fill="none" xmlns="http://www.w3.org/2000/svg">
<path fill-rule="evenodd" clip-rule="evenodd" d="M28.5484 0.686709L12.6619 11.2907C12.0868 11.6737 11.5937 12.1679 11.2107 12.7429L0.619646 28.6478C0.273302 29.1668 0.341276 29.8584 0.782568 30.2997C1.22278 30.741 1.91439 30.81 2.43337 30.4648L18.3199 19.8608C18.895 19.4767 19.3891 18.9836 19.7722 18.4075L30.3632 2.50367C30.7095 1.98361 30.6415 1.29308 30.2003 0.851789C29.759 0.410497 29.0684 0.341444 28.5484 0.686709Z" fill="#FD6E6E"/>
<path fill-rule="evenodd" clip-rule="evenodd" d="M15.4908 18.8209C13.7029 18.8209 12.2539 17.3719 12.2539 15.584C12.2539 13.7962 13.7029 12.3472 15.4908 12.3472C17.2786 12.3472 18.7276 13.7962 18.7276 15.584C18.7276 17.3719 17.2786 18.8209 15.4908 18.8209Z" fill="white"/>
</svg>