<svg width="24" height="24" viewBox="0 0 24 24" fill="none" xmlns="http://www.w3.org/2000/svg">
<path d="M16.4401 19.6669H5.89175C5.3831 19.6669 4.89528 19.4649 4.53561 19.1052C4.17594 18.7455 3.97388 18.2577 3.97388 17.7491V7.20078C3.97388 6.69213 4.17594 6.20431 4.53561 5.84464C4.89528 5.48497 5.3831 5.28291 5.89175 5.28291H9.7275V7.20078H5.89175V17.7491H16.4401V13.9133H18.3579V17.7491C18.3579 18.2577 18.1559 18.7455 17.7962 19.1052C17.4365 19.4649 16.9487 19.6669 16.4401 19.6669ZM11.3577 13.6324L10.0056 12.2764L16.0402 6.24185H12.6043V4.32397H19.3169V11.0365H17.399V7.59874L11.3577 13.6324Z" fill="#C8C8C8"/>
</svg>