<svg width="4.9rem" height="5.0rem" viewBox="0 0 49 50" fill="none" xmlns="http://www.w3.org/2000/svg">
<g clip-path="url(#clip0_1045_2566)">
<path d="M45.3586 15.6288H45.0483V11.6978C45.0483 9.88737 43.5483 8.38737 41.7379 8.38737H41.4276V4.45634C41.4276 2.64599 39.9276 1.146 38.1172 1.146H11.2207C9.41032 1.146 7.91032 2.64599 7.91032 4.45634V8.38737H7.59998C5.78963 8.38737 4.28963 9.88737 4.28963 11.6978V15.6288H3.97929C2.16895 15.6288 0.668945 17.1288 0.668945 18.9391V45.8357C0.668945 47.646 2.16895 49.146 3.97929 49.146H45.3586C47.1689 49.146 48.6689 47.646 48.6689 45.8357V18.9391C48.6689 17.1288 47.1689 15.6288 45.3586 15.6288ZM11.2207 3.62875H38.1172C38.5827 3.62875 38.9448 3.99082 38.9448 4.45634V8.38737H10.3931V4.45634C10.3931 3.99082 10.7552 3.62875 11.2207 3.62875ZM7.59998 10.8701H41.7379C42.2034 10.8701 42.5655 11.2322 42.5655 11.6978V15.6288H6.77239V11.6978C6.77239 11.2322 7.13446 10.8701 7.59998 10.8701ZM3.1517 18.9391C3.1517 18.4736 3.51377 18.1116 3.97929 18.1116H45.3586C45.8241 18.1116 46.1862 18.4736 46.1862 18.9391V45.8357C46.1862 46.3012 45.8241 46.6633 45.3586 46.6633H3.97929C3.51377 46.6633 3.1517 46.3012 3.1517 45.8357V18.9391Z" fill="white"/>
<path d="M40.186 26.077H26.2205C25.6516 26.077 25.186 26.5425 25.186 27.1115C25.186 27.6805 25.6516 28.146 26.2205 28.146H40.186C40.755 28.146 41.2205 27.6805 41.2205 27.1115C41.2205 26.5425 40.755 26.077 40.186 26.077Z" fill="#FD6E6E"/>
<path d="M40.186 31.2495H26.2205C25.6516 31.2495 25.186 31.715 25.186 32.284C25.186 32.8529 25.6516 33.3185 26.2205 33.3185H40.186C40.755 33.3185 41.2205 32.8529 41.2205 32.284C41.2205 31.715 40.755 31.2495 40.186 31.2495Z" fill="#FD6E6E"/>
<path d="M40.186 36.4219H26.2205C25.6516 36.4219 25.186 36.8874 25.186 37.4564C25.186 38.0254 25.6516 38.4909 26.2205 38.4909H40.186C40.755 38.4909 41.2205 38.0254 41.2205 37.4564C41.2205 36.8874 40.755 36.4219 40.186 36.4219Z" fill="#FD6E6E"/>
<path d="M19.7551 40.0942H7.65167C7.0827 40.0942 6.61719 39.6287 6.61719 39.0597V25.6114C6.61719 25.0425 7.0827 24.5769 7.65167 24.5769H19.7551C20.3241 24.5769 20.7896 25.0425 20.7896 25.6114V39.0597C20.7896 39.6287 20.3241 40.0942 19.7551 40.0942ZM8.68615 38.0252H18.7206V26.6459H8.68615V38.0252Z" fill="#FD6E6E"/>
</g>
<defs>
<clipPath id="clip0_1045_2566">
<rect width="49" height="49" fill="white" transform="translate(0 0.939453)"/>
</clipPath>
</defs>
</svg>
