<svg width="22" height="22" viewBox="0 0 22 22" fill="none" xmlns="http://www.w3.org/2000/svg">
<path d="M19.8673 5.37071C19.0961 3.78798 16.8745 2.49301 14.2903 3.24697C13.0555 3.60365 11.9781 4.36857 11.2342 5.41675C10.4903 4.36857 9.41297 3.60365 8.17813 3.24697C5.5882 2.50453 3.37238 3.78798 2.60116 5.37071C1.51914 7.58653 1.96806 10.0786 3.93641 12.7779C5.47885 14.8901 7.68316 17.0311 10.8832 19.5174C10.9843 19.5963 11.1089 19.6392 11.2371 19.6392C11.3654 19.6392 11.4899 19.5963 11.5911 19.5174C14.7853 17.0369 16.9954 14.9131 18.5378 12.7779C20.5004 10.0786 20.9493 7.58653 19.8673 5.37071Z" fill="#F24E1E"/>
</svg>