<svg width="18" height="18" viewBox="0 0 18 18" fill="none" xmlns="http://www.w3.org/2000/svg">
<path d="M1.55444 6.40682C1.55435 5.8907 1.65714 5.37974 1.8568 4.90379C2.05645 4.42785 2.34897 3.99648 2.71726 3.63489C3.08555 3.2733 3.52221 2.98875 4.00174 2.79785C4.48126 2.60696 4.99402 2.51357 5.51006 2.52313C6.12063 2.51988 6.72493 2.64645 7.28288 2.89443C7.84084 3.14241 8.33973 3.50615 8.74647 3.96153C9.15321 3.50615 9.65209 3.14241 10.2101 2.89443C10.768 2.64645 11.3723 2.51988 11.9829 2.52313C12.4989 2.51357 13.0117 2.60696 13.4912 2.79785C13.9707 2.98875 14.4074 3.2733 14.7757 3.63489C15.144 3.99648 15.4365 4.42785 15.6361 4.90379C15.8358 5.37974 15.9386 5.8907 15.9385 6.40682C15.9385 10.2589 11.3507 13.1673 8.74647 15.4688C6.14799 13.1479 1.55444 10.2617 1.55444 6.40682Z" fill="#C8C8C8"/>
</svg>