<svg width="14" height="14" viewBox="0 0 14 14" fill="none" xmlns="http://www.w3.org/2000/svg">
<path fill-rule="evenodd" clip-rule="evenodd" d="M4.52612 1.02225C5.21657 0.990462 5.43672 0.983398 7.19551 0.983398C8.9543 0.983398 9.17445 0.99105 9.86431 1.02225C10.5542 1.05344 11.0251 1.16352 11.4371 1.32303C11.8686 1.48608 12.26 1.74095 12.5837 2.07058C12.9134 2.39373 13.1676 2.78457 13.3301 3.21662C13.4902 3.62865 13.5997 4.09955 13.6315 4.78823C13.6633 5.47986 13.6703 5.7 13.6703 7.45821C13.6703 9.217 13.6627 9.43714 13.6315 10.1276C13.6003 10.8163 13.4902 11.2872 13.3301 11.6992C13.1676 12.1313 12.9129 12.5228 12.5837 12.8464C12.26 13.176 11.8686 13.4303 11.4371 13.5928C11.0251 13.7529 10.5542 13.8624 9.86549 13.8942C9.17445 13.926 8.9543 13.933 7.19551 13.933C5.43672 13.933 5.21657 13.9254 4.52612 13.8942C3.83744 13.863 3.36655 13.7529 2.95451 13.5928C2.52242 13.4303 2.13093 13.1756 1.80729 12.8464C1.47789 12.5231 1.22298 12.1318 1.06034 11.6998C0.900821 11.2878 0.791337 10.8169 0.759552 10.1282C0.727767 9.43655 0.720703 9.21641 0.720703 7.45821C0.720703 5.69941 0.728355 5.47927 0.759552 4.78941C0.790749 4.09955 0.900821 3.62865 1.06034 3.21662C1.22322 2.78462 1.47833 2.39333 1.80788 2.06999C2.13106 1.74066 2.52215 1.48575 2.95392 1.32303C3.36596 1.16352 3.83744 1.05403 4.52612 1.02225ZM9.81192 2.18771C9.12912 2.15652 8.92428 2.15004 7.19551 2.15004C5.46674 2.15004 5.2619 2.15652 4.5791 2.18771C3.94751 2.21655 3.60494 2.32192 3.37655 2.4108C3.07459 2.52852 2.85857 2.66803 2.63195 2.89464C2.41713 3.10363 2.25181 3.35805 2.1481 3.63925C2.05922 3.86763 1.95386 4.21021 1.92502 4.84179C1.89382 5.52459 1.88735 5.72943 1.88735 7.45821C1.88735 9.18698 1.89382 9.39182 1.92502 10.0746C1.95386 10.7062 2.05922 11.0488 2.1481 11.2772C2.2517 11.5579 2.4171 11.8128 2.63195 12.0218C2.84091 12.2366 3.09578 12.402 3.37655 12.5056C3.60494 12.5945 3.94751 12.6999 4.5791 12.7287C5.2619 12.7599 5.46615 12.7664 7.19551 12.7664C8.92487 12.7664 9.12912 12.7599 9.81192 12.7287C10.4435 12.6999 10.7861 12.5945 11.0145 12.5056C11.3164 12.3879 11.5325 12.2484 11.7591 12.0218C11.9739 11.8128 12.1393 11.5579 12.2429 11.2772C12.3318 11.0488 12.4372 10.7062 12.466 10.0746C12.4972 9.39182 12.5037 9.18698 12.5037 7.45821C12.5037 5.72943 12.4972 5.52459 12.466 4.84179C12.4372 4.21021 12.3318 3.86763 12.2429 3.63925C12.1252 3.33729 11.9857 3.12126 11.7591 2.89464C11.5501 2.67984 11.2957 2.51452 11.0145 2.4108C10.7861 2.32192 10.4435 2.21655 9.81192 2.18771ZM6.3685 9.45421C6.83037 9.64647 7.34465 9.67242 7.82353 9.52763C8.3024 9.38283 8.71614 9.07627 8.9941 8.66031C9.27206 8.24435 9.39698 7.74479 9.34753 7.24695C9.29808 6.74912 9.07733 6.2839 8.72298 5.93074C8.49709 5.70499 8.22395 5.53213 7.92324 5.42461C7.62253 5.31709 7.30171 5.27759 6.9839 5.30893C6.66608 5.34028 6.35917 5.4417 6.08526 5.6059C5.81135 5.7701 5.57725 5.99298 5.39981 6.25851C5.22238 6.52404 5.10602 6.82561 5.05913 7.14151C5.01223 7.4574 5.03596 7.77976 5.1286 8.08539C5.22124 8.39101 5.38049 8.6723 5.59489 8.90899C5.80929 9.14568 6.0735 9.33189 6.3685 9.45421ZM4.84221 5.10491C5.15125 4.79587 5.51814 4.55072 5.92192 4.38347C6.32569 4.21622 6.75846 4.13014 7.19551 4.13014C7.63256 4.13014 8.06533 4.21622 8.46911 4.38347C8.87289 4.55072 9.23977 4.79587 9.54881 5.10491C9.85785 5.41395 10.103 5.78083 10.2702 6.18461C10.4375 6.58839 10.5236 7.02116 10.5236 7.45821C10.5236 7.89525 10.4375 8.32802 10.2702 8.7318C10.103 9.13558 9.85785 9.50246 9.54881 9.8115C8.92468 10.4356 8.07817 10.7863 7.19551 10.7863C6.31285 10.7863 5.46635 10.4356 4.84221 9.8115C4.21808 9.18737 3.86744 8.34086 3.86744 7.45821C3.86744 6.57555 4.21808 5.72904 4.84221 5.10491ZM11.2617 4.62577C11.3383 4.55353 11.3996 4.46666 11.442 4.3703C11.4844 4.27393 11.507 4.17005 11.5086 4.06478C11.5101 3.95951 11.4905 3.855 11.4509 3.75745C11.4113 3.65989 11.3526 3.57127 11.2781 3.49682C11.2037 3.42238 11.1151 3.36363 11.0175 3.32405C10.92 3.28447 10.8155 3.26487 10.7102 3.26641C10.6049 3.26794 10.501 3.29058 10.4047 3.33299C10.3083 3.37539 10.2214 3.4367 10.1492 3.51328C10.0087 3.66222 9.93178 3.86005 9.93477 4.06478C9.93775 4.2695 10.0204 4.46501 10.1652 4.60979C10.31 4.75457 10.5055 4.83722 10.7102 4.84021C10.9149 4.84319 11.1128 4.76627 11.2617 4.62577Z" fill="white"/>
</svg>