<svg width="15" height="15" viewBox="0 0 15 15" fill="none" xmlns="http://www.w3.org/2000/svg">
<path d="M2.3067 4.04505C3.25234 4.04505 4.01892 3.27846 4.01892 2.33283C4.01892 1.38719 3.25234 0.620605 2.3067 0.620605C1.36107 0.620605 0.594482 1.38719 0.594482 2.33283C0.594482 3.27846 1.36107 4.04505 2.3067 4.04505Z" fill="white"/>
<path d="M5.63577 5.34219V14.8416H8.58521V10.1439C8.58521 8.90436 8.81841 7.70392 10.3553 7.70392C11.8711 7.70392 11.8899 9.12112 11.8899 10.2222V14.8424H14.8409V9.63291C14.8409 7.07397 14.29 5.10742 11.2991 5.10742C9.86311 5.10742 8.90057 5.89545 8.50695 6.64122H8.46704V5.34219H5.63577ZM0.829346 5.34219H3.78347V14.8416H0.829346V5.34219Z" fill="white"/>
</svg>