<svg width="11" height="13" viewBox="0 0 11 13" fill="none" xmlns="http://www.w3.org/2000/svg">
<path d="M5.69851 0.0996094C4.4362 0.101072 3.22603 0.594216 2.33344 1.47086C1.44086 2.34751 0.93875 3.53608 0.937261 4.77585C0.935749 5.78899 1.2727 6.77464 1.89644 7.58159C1.89644 7.58159 2.02629 7.74951 2.0475 7.77375L5.69851 12.0028L9.35125 7.77162C9.37029 7.74909 9.50058 7.58159 9.50058 7.58159L9.50101 7.58032C10.1244 6.77372 10.4612 5.78852 10.4598 4.77585C10.4583 3.53608 9.95616 2.34751 9.06357 1.47086C8.17099 0.594216 6.96081 0.101072 5.69851 0.0996094ZM5.69851 6.4763C5.35608 6.4763 5.02134 6.37657 4.73661 6.18972C4.45189 6.00288 4.22998 5.7373 4.09894 5.42658C3.96789 5.11587 3.93361 4.77396 4.00041 4.44411C4.06722 4.11425 4.23211 3.81126 4.47425 3.57345C4.71639 3.33564 5.02488 3.17368 5.36074 3.10807C5.69659 3.04246 6.04471 3.07613 6.36107 3.20484C6.67744 3.33354 6.94784 3.55149 7.13808 3.83113C7.32833 4.11077 7.42987 4.43953 7.42987 4.77585C7.4293 5.22667 7.2467 5.65885 6.92213 5.97763C6.59756 6.2964 6.15752 6.47574 5.69851 6.4763Z" fill="#FD6E6E"/>
</svg>