<svg width="14" height="11" viewBox="0 0 14 11" fill="none" xmlns="http://www.w3.org/2000/svg">
<path d="M2.65169 0.317383H11.3299C11.8635 0.317348 12.3769 0.521515 12.7648 0.888003C13.1527 1.25449 13.3856 1.75551 13.4158 2.28829L13.4191 2.40657V8.51344C13.4191 9.04707 13.2149 9.56049 12.8484 9.94838C12.4819 10.3363 11.9809 10.5692 11.4481 10.5994L11.3299 10.6026H2.65169C2.11805 10.6027 1.60463 10.3985 1.21675 10.032C0.828866 9.66552 0.595926 9.1645 0.565714 8.63172L0.5625 8.51344V2.40657C0.562465 1.87294 0.766633 1.35952 1.13312 0.971633C1.49961 0.583749 2.00063 0.350809 2.53341 0.320597L2.65169 0.317383H11.3299H2.65169ZM12.4548 3.7713L7.21577 6.52903C7.15661 6.56028 7.0916 6.57887 7.02486 6.58363C6.95813 6.58839 6.89113 6.57921 6.82814 6.55667L6.76643 6.52967L1.52674 3.77194V8.51344C1.52675 8.79576 1.63292 9.06776 1.82417 9.27544C2.01541 9.48312 2.27776 9.6113 2.55912 9.63453L2.65169 9.63838H11.3299C11.6123 9.63836 11.8844 9.53211 12.0921 9.34073C12.2998 9.14935 12.4279 8.88684 12.451 8.60536L12.4548 8.51344V3.7713ZM11.3299 1.28162H2.65169C2.36937 1.28163 2.09737 1.3878 1.88969 1.57905C1.68201 1.77029 1.55383 2.03264 1.5306 2.31401L1.52674 2.40657V2.68235L6.99078 5.55771L12.4548 2.6817V2.40657C12.4548 2.12415 12.3485 1.85206 12.1572 1.64437C11.9658 1.43667 11.7033 1.30856 11.4218 1.28548L11.3299 1.28162Z" fill="white"/>
</svg>