<svg width="13" height="13" viewBox="0 0 13 13" fill="none" xmlns="http://www.w3.org/2000/svg">
<path d="M5.4089 7.70918C6.14432 8.45522 7.03415 9.0312 8.0159 9.39668L9.34405 8.33979C9.38343 8.31267 9.43011 8.29815 9.47793 8.29815C9.52574 8.29815 9.57242 8.31267 9.6118 8.33979L12.0779 9.92865C12.1715 9.98493 12.2507 10.0622 12.3094 10.1544C12.368 10.2466 12.4044 10.3511 12.4157 10.4598C12.4269 10.5684 12.4128 10.6782 12.3743 10.7805C12.3359 10.8827 12.2742 10.9746 12.1941 11.0489L11.0386 12.1904C10.8731 12.3539 10.6697 12.4739 10.4466 12.5397C10.2234 12.6054 9.98748 12.615 9.75976 12.5673C7.48823 12.0982 5.39451 10.9995 3.71788 9.39668C2.07847 7.77796 0.943999 5.7183 0.452097 3.46753C0.403503 3.24335 0.413646 3.01041 0.48154 2.79129C0.549435 2.57218 0.672781 2.37431 0.839623 2.21688L2.03743 1.06135C2.11155 0.985179 2.20195 0.926764 2.30184 0.890479C2.40174 0.854193 2.50855 0.840978 2.61428 0.851822C2.72001 0.862666 2.82192 0.897288 2.91237 0.953097C3.00282 1.00891 3.07948 1.08445 3.13659 1.17408L4.77829 3.60845C4.80661 3.64668 4.8219 3.69299 4.8219 3.74056C4.8219 3.78813 4.80661 3.83445 4.77829 3.87267L3.69674 5.17265C4.07214 6.13475 4.65701 7.00121 5.4089 7.70918Z" fill="white"/>
</svg>