<svg width="13" height="12" viewBox="0 0 13 12" fill="none" xmlns="http://www.w3.org/2000/svg">
<path d="M12.0465 4.37687L8.46403 3.85622L6.86257 0.609558C6.81883 0.520666 6.74687 0.448706 6.65797 0.404966C6.43504 0.29491 6.16413 0.386623 6.05266 0.609558L4.4512 3.85622L0.868726 4.37687C0.769957 4.39098 0.679655 4.43755 0.610517 4.50809C0.526933 4.594 0.480874 4.70958 0.482462 4.82943C0.484049 4.94928 0.533153 5.0636 0.618983 5.14727L3.21095 7.67433L2.59859 11.2427C2.58423 11.3257 2.59341 11.4111 2.6251 11.4891C2.65679 11.5672 2.70972 11.6348 2.77788 11.6843C2.84604 11.7338 2.92671 11.7632 3.01073 11.7692C3.09476 11.7752 3.17879 11.7575 3.25328 11.7182L6.45762 10.0335L9.66195 11.7182C9.74943 11.7648 9.85102 11.7803 9.94838 11.7633C10.1939 11.721 10.359 11.4882 10.3166 11.2427L9.70428 7.67433L12.2962 5.14727C12.3668 5.07813 12.4134 4.98783 12.4275 4.88906C12.4656 4.64214 12.2934 4.41356 12.0465 4.37687Z" fill="#FD6E6E"/>
</svg>