<svg width="16" height="14" viewBox="0 0 16 14" fill="none" xmlns="http://www.w3.org/2000/svg">
<path d="M15.5076 2.33342C14.9382 2.58239 14.3186 2.76157 13.6804 2.83136C14.343 2.43232 14.8392 1.80191 15.0759 1.05839C14.4542 1.43334 13.773 1.69625 13.0627 1.83548C12.7658 1.51376 12.4068 1.25746 12.0079 1.08255C11.609 0.907645 11.1789 0.817882 10.7443 0.818855C8.98603 0.818855 7.57194 2.26363 7.57194 4.0366C7.57194 4.28556 7.60171 4.53453 7.65008 4.77407C5.01727 4.6345 2.66913 3.35947 1.10804 1.40733C0.823598 1.89983 0.674538 2.46059 0.676373 3.03129C0.676373 4.14788 1.23643 5.13244 2.09047 5.71148C1.58717 5.69139 1.09566 5.55116 0.655906 5.30219V5.3418C0.655906 6.9054 1.74625 8.20117 3.19941 8.49918C2.92656 8.57103 2.64588 8.60778 2.36398 8.60858C2.15745 8.60858 1.96208 8.58783 1.76485 8.55954C2.16675 9.83456 3.3371 10.7607 4.73073 10.7908C3.64039 11.6566 2.27467 12.1658 0.791734 12.1658C0.525661 12.1658 0.280055 12.1564 0.0251465 12.1262C1.4318 13.041 3.1008 13.5691 4.89818 13.5691C10.7332 13.5691 13.926 8.66893 13.926 4.41571C13.926 4.27613 13.926 4.13656 13.9167 3.99699C14.5345 3.53866 15.0759 2.97093 15.5076 2.33342Z" fill="white"/>
</svg>