<svg width="16" height="11" viewBox="0 0 16 11" fill="none" xmlns="http://www.w3.org/2000/svg">
<path d="M15.563 9.16075C15.4761 9.48646 15.3056 9.78348 15.0686 10.0221C14.8317 10.2607 14.5366 10.4326 14.2128 10.5204C13.0212 10.8428 8.24427 10.8428 8.24427 10.8428C8.24427 10.8428 3.46737 10.8428 2.2757 10.5221C1.95182 10.4346 1.65656 10.2628 1.41956 10.0242C1.18255 9.78549 1.01216 9.48831 0.92549 9.16246C0.60669 7.96223 0.60669 5.45891 0.60669 5.45891C0.60669 5.45891 0.606691 2.95558 0.925492 1.75707C1.10109 1.09523 1.61935 0.573992 2.27571 0.397388C3.46737 0.0750423 8.24427 0.0750431 8.24427 0.0750431C8.24427 0.0750431 13.0212 0.0750439 14.2128 0.39739C14.8709 0.573994 15.3875 1.09524 15.563 1.75707C15.8818 2.95558 15.8818 5.45891 15.8818 5.45891C15.8818 5.45891 15.8818 7.96224 15.563 9.16075ZM6.72698 3.16134L6.72698 7.75648L10.6822 5.47606L6.72698 3.16134Z" fill="white"/>
</svg>